<svg width="33" height="33" viewBox="0 0 33 33" fill="none" xmlns="http://www.w3.org/2000/svg">
<path d="M23.235 1.95555C22.2805 1.94691 21.3929 2.27895 20.4979 2.54309C17.3249 3.47749 14.3231 4.8118 11.5751 6.68923C8.23335 8.97152 5.54122 11.8562 3.75497 15.5592C2.6803 17.7872 2.02215 20.1398 1.72828 22.6048C1.67728 23.0356 1.64085 23.4589 1.66149 23.8897C0.353679 21.2729 -0.14176 18.4796 0.034315 15.5752C0.249248 12.0302 1.46842 8.8592 3.71854 6.12884C6.29531 3.0035 9.59096 1.13595 13.5387 0.476814C16.9193 -0.0872784 20.1603 0.39905 23.235 1.95555Z" fill="#F7AB94"/>
<path d="M31.9588 13.997C31.1039 8.49678 28.0815 4.51851 23.2351 1.95479C22.8624 1.82889 22.4981 1.87703 22.1228 1.97331C19.2437 2.71144 16.4641 3.71002 13.8509 5.16036C11.1807 6.6428 8.77754 8.46098 6.75692 10.7951C4.02472 13.9513 2.38782 17.6185 1.7236 21.7486C1.60945 22.4547 1.43095 23.1669 1.66288 23.8865C2.5979 25.7985 3.85229 27.4599 5.42846 28.8744C8.00402 31.1864 11.0009 32.5639 14.4095 32.9058C19.0033 33.3662 23.1368 32.1109 26.6061 29.0003C31.0517 25.0147 32.8853 19.9551 31.96 13.997H31.9588ZM24.8733 18.8911C24.832 19.2516 24.6134 19.1627 24.4227 19.1627C22.1471 19.1664 19.8727 19.1652 17.5971 19.1652C15.3215 19.1652 13.0471 19.1713 10.7714 19.1577C10.4569 19.1565 10.3634 19.233 10.3683 19.5651C10.4156 22.7608 12.2468 24.8838 15.438 25.3813C18.1593 25.8047 20.849 25.5417 23.5084 24.8949C23.8957 24.8011 24.0487 24.8036 24.0208 25.2764C23.9807 25.9528 23.9832 26.6341 24.0208 27.3105C24.0427 27.7031 23.8945 27.8462 23.5436 27.9314C21.2242 28.4918 18.8697 28.6375 16.4969 28.5622C15.0191 28.5153 13.5692 28.2943 12.1849 27.7364C9.62391 26.7057 7.98095 24.8221 7.25722 22.1337C6.48977 19.2799 6.48127 16.4076 7.26208 13.5563C8.17281 10.231 10.4181 8.39803 13.6979 7.81419C15.5959 7.47598 17.4975 7.5019 19.3833 7.96725C22.4009 8.71279 24.1495 10.6779 24.7652 13.7353C25.11 15.4461 25.0688 17.1643 24.872 18.8887L24.8733 18.8911Z" fill="#F0592A"/>
<path d="M15.9225 16.0627C14.1946 16.0627 12.4666 16.0615 10.7386 16.0652C10.5273 16.0652 10.3452 16.0812 10.3816 15.7652C10.5905 13.952 11.1151 12.2795 12.8175 11.3698C14.8199 10.2996 16.9426 10.2613 19.0069 11.1587C20.543 11.8265 21.1562 13.2534 21.4064 14.8457C21.597 16.0615 21.5812 16.0639 20.3791 16.0639C18.894 16.0639 17.4089 16.0639 15.9237 16.0639L15.9225 16.0627Z" fill="#F0592A"/>
</svg>
