<svg width="64" height="64" viewBox="0 0 64 64" fill="none" xmlns="http://www.w3.org/2000/svg">
<path d="M13.333 21.333C13.3607 14.2813 13.621 10.509 16.0634 8.06668C18.797 5.33301 23.1968 5.33301 31.9964 5.33301C40.7959 5.33301 45.1957 5.33301 47.9294 8.06668C50.3717 10.509 50.632 14.2813 50.6597 21.333M13.333 42.6663C13.3607 49.7181 13.621 53.4903 16.0634 55.9327C18.797 58.6663 23.1968 58.6663 31.9964 58.6663C40.7959 58.6663 45.1957 58.6663 47.9294 55.9327C50.3717 53.4903 50.632 49.7181 50.6597 42.6664" stroke="#F04A01" stroke-width="2.5" stroke-linecap="round"/>
<path d="M29.333 50.666H34.6663" stroke="#F04A01" stroke-width="2.5" stroke-linecap="round" stroke-linejoin="round"/>
<path d="M42.6667 26.666L45.9374 29.4852C47.3125 30.6704 48 31.263 48 31.9993C48 32.7357 47.3125 33.3283 45.9374 34.5135L42.6667 37.3327" stroke="#F04A01" stroke-width="2.5" stroke-linecap="round" stroke-linejoin="round"/>
<path d="M21.3333 26.666L18.0626 29.4852C16.6875 30.6704 16 31.263 16 31.9993C16 32.7357 16.6875 33.3283 18.0626 34.5135L21.3333 37.3327" stroke="#F04A01" stroke-width="2.5" stroke-linecap="round" stroke-linejoin="round"/>
<path d="M34.6663 24L29.333 40" stroke="#F04A01" stroke-width="2.5" stroke-linecap="round" stroke-linejoin="round"/>
</svg>
