<svg width="44" height="73" viewBox="0 0 44 73" fill="none" xmlns="http://www.w3.org/2000/svg">
<g clip-path="url(#clip0_133_947)">
<g opacity="0.199">
<path d="M33.3751 15.8021C33.3796 18.0676 32.8979 20.3077 31.9626 22.3712C31.0273 24.4346 29.6602 26.2734 27.9535 27.7633C26.0698 26.382 21.9098 26.9097 21.5879 28.4383C21.5981 22.4835 21.6164 16.3895 21.6164 16.3895C21.6008 10.432 13.8547 10.4402 13.8703 16.397L13.8628 31.126C10.9834 30.4267 8.35895 28.9311 6.2896 26.8103C4.22024 24.6895 2.78945 22.0292 2.16097 19.1335C1.53248 16.2378 1.7316 13.2237 2.73559 10.4359C3.73958 7.64807 5.508 5.19907 7.83839 3.36899C10.1688 1.5389 12.9671 0.401649 15.9135 0.087202C18.8598 -0.227245 21.8352 0.293849 24.4993 1.5909C27.1634 2.88796 29.4088 4.90854 30.9785 7.42169C32.5482 9.93483 33.3783 12.839 33.3751 15.8021Z" fill="#F04A01"/>
</g>
<path d="M21.5879 28.4382C21.9084 26.9096 26.0698 26.382 27.9528 27.7632C28.2367 27.9554 28.4689 28.2145 28.6289 28.5177C28.7889 28.8209 28.8718 29.1588 28.8703 29.5016C28.8703 29.5329 28.8757 31.8784 28.8804 34.3699" stroke="#F04A01" stroke-width="3" stroke-linecap="round" stroke-linejoin="round"/>
<path d="M21.5704 28.6294C21.5697 28.5669 21.5755 28.5046 21.5879 28.4434" stroke="#F04A01" stroke-width="3" stroke-linecap="round" stroke-linejoin="round"/>
<path d="M28.8961 40.1798C28.8961 40.1798 28.8961 39.3418 28.8887 38.1338C28.8887 37.8465 28.8887 37.5416 28.8887 37.2258C28.8887 37.0941 28.8887 36.9597 28.8887 36.8184C28.8887 36.1821 28.8887 35.5099 28.8887 34.8654C28.8887 34.6977 28.8887 34.5347 28.8887 34.369V33.7945C28.8839 31.1692 35.661 31.3499 35.6719 34.3636L35.6767 37.0276" stroke="#F04A01" stroke-width="3" stroke-linecap="round" stroke-linejoin="round"/>
<path d="M35.6872 43.9158L35.6688 37.0294C38.0109 36.0413 39.6481 35.881 41.1727 37.9685C43.161 40.6902 42.4358 50.4416 41.2141 59.1826C40.6579 63.1484 38.5127 64.77 38.0394 66.8473C37.7162 68.6467 37.5439 70.4701 37.5241 72.2982L15.0923 72.3213C15.1259 70.4861 14.9176 68.6545 14.4724 66.8738C10.6649 54.8997 7.65386 47.6873 1.1959 39.1311C-0.433865 36.6423 2.86912 32.8578 5.39798 34.4C8.85716 36.5051 10.9663 40.4118 13.8592 44.4394V31.1296L13.8666 16.4006C13.851 10.4431 21.5978 10.4356 21.6128 16.3931C21.6128 16.3931 21.5951 22.4871 21.5849 28.4419V28.4472C21.5849 29.3497 21.5849 30.2502 21.5849 31.1269C21.5849 32.9943 21.5849 34.7511 21.5849 36.1785" stroke="#F04A01" stroke-width="3" stroke-linecap="round" stroke-linejoin="round"/>
<path d="M8.52216 15.8049C8.50737 14.5879 8.73432 13.3801 9.18979 12.2515C9.64527 11.1229 10.3201 10.096 11.1754 9.23018C12.0308 8.36439 13.0494 7.67696 14.1724 7.20781C15.2954 6.73865 16.5004 6.49707 17.7175 6.49707C18.9345 6.49707 20.1394 6.73865 21.2623 7.20781C22.3853 7.67696 23.404 8.36439 24.2593 9.23018C25.1146 10.096 25.7896 11.1229 26.2451 12.2515C26.7006 13.3801 26.9275 14.5879 26.9128 15.8049" stroke="#F04A01" stroke-width="3" stroke-linecap="round" stroke-linejoin="round"/>
</g>
<defs>
<clipPath id="clip0_133_947">
<rect width="43.1067" height="73" fill="white"/>
</clipPath>
</defs>
</svg>
