<svg width="64" height="64" viewBox="0 0 64 64" fill="none" xmlns="http://www.w3.org/2000/svg">
<path d="M42.666 37.333C42.666 39.5421 44.4569 41.333 46.666 41.333C48.8752 41.333 50.666 39.5421 50.666 37.333C50.666 35.1239 48.8752 33.333 46.666 33.333C44.4569 33.333 42.666 35.1239 42.666 37.333Z" stroke="#F04A01" stroke-width="2.5"/>
<path d="M26.6663 18.6667H42.6663C50.2088 18.6667 53.98 18.6667 56.3232 21.0098C58.6663 23.353 58.6663 27.1242 58.6663 34.6667V40C58.6663 47.5425 58.6663 51.3137 56.3232 53.6569C53.98 56 50.2088 56 42.6663 56H26.6663C16.6097 56 11.5814 56 8.4572 52.8758C5.33301 49.7516 5.33301 44.7233 5.33301 34.6667V29.3333C5.33301 19.2767 5.33301 14.2484 8.4572 11.1242C11.5814 8 16.6097 8 26.6663 8H37.333C39.8129 8 41.0529 8 42.0702 8.27259C44.831 9.01233 46.9873 11.1687 47.7271 13.9294C47.9997 14.9468 47.9997 16.1867 47.9997 18.6667" stroke="#F04A01" stroke-width="2.5" stroke-linecap="round"/>
</svg>
