<svg width="72" height="73" viewBox="0 0 72 73" fill="none" xmlns="http://www.w3.org/2000/svg">
<g clip-path="url(#clip0_133_874)">
<path d="M44.4161 21.0037C42.3614 19.327 39.9322 18.1666 37.3331 17.6204C34.7339 17.0741 32.0409 17.158 29.4811 17.8649C26.9213 18.5718 24.5697 19.881 22.6243 21.6823C20.6789 23.4835 19.1968 25.724 18.3028 28.215C17.4088 30.706 17.1291 33.3744 17.4873 35.9955C17.8456 38.6166 18.8311 41.1136 20.3611 43.2761C21.891 45.4385 23.9205 47.2031 26.2786 48.4211C28.6366 49.6391 31.2542 50.2749 33.9106 50.2749" stroke="#F04A01" stroke-width="3" stroke-linejoin="round"/>
<path d="M47.6572 72.2679C54.8583 64.373 59.7858 54.6889 61.9197 44.2373" stroke="#F04A01" stroke-width="3" stroke-miterlimit="10"/>
<path d="M41.1035 64.801C46.448 59.8042 50.8227 53.8703 54.0093 47.2959" stroke="#F04A01" stroke-width="3" stroke-miterlimit="10"/>
<path d="M36.3935 68.7725C34.6892 70.0635 32.9158 71.2614 31.0811 72.3609" stroke="#F04A01" stroke-width="3" stroke-miterlimit="10"/>
<path d="M49.9187 41.6904C46.8732 46.631 43.1194 51.1021 38.7764 54.9625" stroke="#F04A01" stroke-width="3" stroke-miterlimit="10"/>
<path d="M13.6895 68.1875C16.6997 67.4411 19.646 66.4582 22.5003 65.248" stroke="#F04A01" stroke-width="3" stroke-miterlimit="10"/>
<path d="M33.959 58.8184C32.0641 60.1789 30.0903 61.4269 28.0479 62.5559" stroke="#F04A01" stroke-width="3" stroke-miterlimit="10"/>
<path d="M69.2859 13.9595C69.6373 16.1393 69.4094 18.3726 68.6252 20.4375L67.2154 24.1989L62.3279 37.2511L62.3204 37.272L52.1143 35.3347L52.3245 31.2977L52.8251 21.6551L53.0547 17.2402C53.1609 15.1138 53.8 13.0477 54.9135 11.2301C54.9359 11.1914 54.9605 11.1556 54.9882 11.1139C55.2765 10.6534 55.5805 10.2063 55.9003 9.77266C58.0686 6.89556 60.8244 4.50847 63.986 2.76855C66.2882 5.55256 67.9702 8.79179 68.9207 12.2718C69.0415 12.7268 69.1464 13.1873 69.2357 13.6532C69.2521 13.7531 69.2702 13.8567 69.2859 13.9595Z" stroke="#F04A01" stroke-width="3" stroke-miterlimit="10"/>
<path d="M62.3223 37.2728L62.329 37.2781L68.8627 41.5737L68.9787 41.403C70.5063 39.1504 71.2989 36.4834 71.2487 33.7657C71.1985 31.048 70.3079 28.4119 68.6981 26.2168L67.2173 24.1982" stroke="#F04A01" stroke-width="3" stroke-miterlimit="10"/>
<path d="M52.8402 21.3711L50.603 22.7779C48.295 24.2291 46.4926 26.3539 45.4417 28.8625C44.3908 31.3711 44.1424 34.1415 44.7306 36.7958L44.7748 36.997L52.1181 35.3331" stroke="#F04A01" stroke-width="3" stroke-miterlimit="10"/>
<path d="M55.8955 9.77246C58.4463 13.5726 65.1738 14.8497 68.9465 12.2507" stroke="#F04A01" stroke-width="3" stroke-miterlimit="10"/>
<path d="M61.5864 20.8398C61.5535 21.0118 61.4702 21.1702 61.3469 21.2951C61.2236 21.4199 61.0658 21.5055 60.8936 21.541C60.7215 21.5766 60.5426 21.5605 60.3796 21.4948C60.2166 21.429 60.0769 21.3167 59.9781 21.1718C59.8792 21.027 59.8256 20.8562 59.8242 20.6811C59.8229 20.506 59.8738 20.3345 59.9704 20.1881C60.067 20.0418 60.2049 19.9273 60.3668 19.859C60.5287 19.7908 60.7074 19.7719 60.8801 19.8048C61.1116 19.8489 61.316 19.9826 61.4484 20.1767C61.5809 20.3708 61.6304 20.6093 61.5864 20.8398Z" stroke="#F04A01" stroke-width="3" stroke-miterlimit="10"/>
<path d="M59.6295 28.5027C59.5967 28.6747 59.5133 28.8332 59.39 28.958C59.2668 29.0828 59.1091 29.1685 58.937 29.2041C58.7648 29.2396 58.5859 29.2236 58.4229 29.158C58.2599 29.0923 58.1201 28.98 58.0212 28.8353C57.9223 28.6905 57.8687 28.5198 57.8672 28.3447C57.8658 28.1697 57.9165 27.9981 58.013 27.8517C58.1095 27.7053 58.2474 27.5907 58.4092 27.5224C58.5711 27.454 58.7497 27.435 58.9224 27.4678C59.1539 27.5118 59.3583 27.6455 59.4909 27.8396C59.6234 28.0336 59.6734 28.2721 59.6295 28.5027Z" stroke="#F04A01" stroke-width="3" stroke-miterlimit="10"/>
<path d="M34.7053 11.5951C34.6786 11.7343 34.6111 11.8626 34.5112 11.9637C34.4114 12.0647 34.2836 12.134 34.1442 12.1628C34.0048 12.1916 33.8601 12.1786 33.7281 12.1254C33.5961 12.0722 33.483 11.9812 33.4029 11.864C33.3229 11.7468 33.2795 11.6085 33.2783 11.4668C33.2772 11.325 33.3182 11.1861 33.3964 11.0676C33.4745 10.949 33.5862 10.8563 33.7173 10.801C33.8484 10.7456 33.9929 10.7303 34.1327 10.7568C34.3203 10.7924 34.4859 10.9007 34.5933 11.0579C34.7006 11.2151 34.741 11.4083 34.7053 11.5951Z" stroke="#F04A01" stroke-width="3" stroke-miterlimit="10"/>
<path d="M18.7118 17.4958C18.7918 17.6131 18.835 17.7513 18.836 17.893C18.8371 18.0348 18.796 18.1736 18.7178 18.2921C18.6397 18.4106 18.528 18.5033 18.3969 18.5585C18.2658 18.6138 18.1213 18.6291 17.9815 18.6025C17.8416 18.576 17.7128 18.5088 17.6114 18.4093C17.5099 18.3099 17.4404 18.1828 17.4115 18.044C17.3826 17.9052 17.3956 17.761 17.449 17.6296C17.5023 17.4982 17.5936 17.3855 17.7113 17.3058C17.7895 17.2528 17.8775 17.2157 17.9701 17.1966C18.0628 17.1774 18.1582 17.1767 18.2511 17.1943C18.344 17.212 18.4326 17.2477 18.5116 17.2994C18.5906 17.3511 18.6587 17.4179 18.7118 17.4958Z" stroke="#F04A01" stroke-width="3" stroke-miterlimit="10"/>
<path d="M11.5947 32.9316C11.7346 32.9581 11.8633 33.0254 11.9648 33.1248C12.0663 33.2242 12.136 33.3514 12.1649 33.4902C12.1938 33.629 12.1806 33.7733 12.1272 33.9047C12.0738 34.0361 11.9824 34.1488 11.8647 34.2285C11.747 34.3082 11.6083 34.3514 11.4659 34.3525C11.3236 34.3537 11.184 34.3128 11.065 34.235C10.9459 34.1572 10.8529 34.046 10.7973 33.9154C10.7418 33.7849 10.7263 33.6409 10.7529 33.5016C10.7887 33.3149 10.8974 33.1499 11.0553 33.043C11.2131 32.9361 11.4072 32.896 11.5947 32.9316Z" stroke="#F04A01" stroke-width="3" stroke-miterlimit="10"/>
<path d="M17.5211 48.8574C17.6389 48.7777 17.7777 48.7345 17.9201 48.7334C18.0625 48.7323 18.2021 48.7732 18.3211 48.8511C18.4401 48.9289 18.5332 49.0402 18.5887 49.1707C18.6442 49.3013 18.6596 49.4453 18.6329 49.5846C18.6062 49.7239 18.5386 49.8521 18.4387 49.9532C18.3388 50.0542 18.2112 50.1234 18.0717 50.1521C17.9323 50.1809 17.7874 50.1678 17.6554 50.1145C17.5235 50.0612 17.4104 49.9702 17.3304 49.8529C17.2232 49.6957 17.183 49.5025 17.2188 49.3158C17.2546 49.1291 17.3633 48.9642 17.5211 48.8574Z" stroke="#F04A01" stroke-width="3" stroke-miterlimit="10"/>
<path d="M60.6701 36.9831L56.2262 42.0402L53.7695 35.627" stroke="#F04A01" stroke-width="3" stroke-miterlimit="10"/>
<path d="M23.5751 58.5775L19.7246 55.5851C19.3056 56.2229 14.6895 60.2048 14.076 60.7212L6.84634 53.5211C7.36413 52.9101 11.3635 48.3135 12.004 47.8962L8.38915 39.2059C7.6409 39.3616 1.54793 38.928 0.748047 38.8602V28.6789C1.54793 28.6118 7.64015 28.1774 8.38915 28.3331L12.004 19.6428C11.3635 19.2263 7.36488 14.6289 6.84634 14.0179L14.076 6.81858C14.6895 7.3342 19.3056 11.3169 19.7246 11.9539L28.4514 8.35427C28.295 7.60915 28.7313 1.54165 28.7986 0.745117H39.0235C39.0909 1.54165 39.527 7.60841 39.3706 8.35427L48.0947 11.9517" stroke="#F04A01" stroke-width="3" stroke-linejoin="round"/>
</g>
<defs>
<clipPath id="clip0_133_874">
<rect width="72" height="73" fill="white"/>
</clipPath>
</defs>
</svg>
