<svg width="72" height="83" viewBox="0 0 72 83" fill="none" xmlns="http://www.w3.org/2000/svg">
<g clip-path="url(#clip0_133_920)">
<path d="M71.2323 32.6905C71.2536 33.426 71.0567 34.1514 70.6663 34.775C70.2758 35.3987 69.7095 35.8927 69.0386 36.1948C68.3677 36.4969 67.6223 36.5937 66.8965 36.4727C66.1708 36.3517 65.4971 36.0185 64.9605 35.5151C64.4239 35.0116 64.0484 34.3605 63.8814 33.644C63.7144 32.9274 63.7634 32.1774 64.0222 31.4886C64.2809 30.7998 64.738 30.2031 65.3355 29.7737C65.933 29.3443 66.6442 29.1016 67.3796 29.076C68.3696 29.0453 69.3313 29.4086 70.0536 30.0863C70.776 30.764 71.1999 31.7006 71.2323 32.6905Z" stroke="#F04A01" stroke-width="3" stroke-linejoin="round"/>
<path d="M8.21426 32.6905C8.23576 33.4262 8.03883 34.1518 7.6484 34.7757C7.25796 35.3996 6.69162 35.8939 6.02057 36.1962C5.34951 36.4985 4.60392 36.5953 3.87793 36.4743C3.15194 36.3533 2.47794 36.0199 1.94118 35.5164C1.40441 35.0128 1.02882 34.3615 0.861815 33.6447C0.694806 32.9279 0.743901 32.1777 1.00281 31.4888C1.26172 30.7998 1.71891 30.2029 2.31667 29.7735C2.91442 29.3441 3.62595 29.1015 4.36151 29.076C5.3515 29.0453 6.31325 29.4086 7.0356 30.0863C7.75794 30.764 8.18186 31.7006 8.21426 32.6905Z" stroke="#F04A01" stroke-width="3" stroke-linejoin="round"/>
<path d="M33.5149 62.9997C33.6305 63.3597 33.5624 43.9789 33.544 41.7064C33.5494 38.3469 39.1285 38.2228 39.1239 41.711L39.0566 57.7346L39.0811 54.0703C39.0811 54.0703 42.0176 51.5013 44.4081 55.0093L44.4021 59.121C44.4021 59.121 44.3807 56.9104 44.4121 56.2417C44.4488 55.4658 48.5942 53.4024 49.6037 57.2498L49.6189 60.1213C49.6189 60.1213 49.6312 58.5526 49.632 58.2348C49.7576 57.4007 53.1699 55.3579 54.619 58.4339C54.619 58.4339 55.3482 67.6682 54.2781 71.6251C52.9569 76.5103 48.9082 81.7616 42.1043 81.9493C37.4251 82.0787 35.7292 80.8318 33.8434 78.8855C31.9577 76.9392 24.6284 60.7578 23.4902 59.4305C22.352 58.1031 24.5364 56.2234 26.6129 57.0499C28.6894 57.8763 32.8485 60.9225 33.5149 62.9997Z" stroke="#F04A01" stroke-width="3" stroke-linejoin="round"/>
<path d="M41.811 43.038H50.5514V22.3076H21.4453V43.038H30.0929" stroke="#F04A01" stroke-width="3" stroke-linejoin="round"/>
<path d="M29.041 37.9534V27.6299H42.9614V37.9503" stroke="#F04A01" stroke-width="3" stroke-linejoin="round"/>
<path d="M63.785 32.8779H52.9922" stroke="#F04A01" stroke-width="3" stroke-linejoin="round"/>
<path d="M19.0098 32.8779H8.2168" stroke="#F04A01" stroke-width="3" stroke-linejoin="round"/>
<path d="M63.6436 47.6861C63.6636 47.099 63.5089 46.5191 63.1993 46.0198C62.8898 45.5205 62.4392 45.1241 61.9044 44.8809C61.3696 44.6376 60.7746 44.5584 60.1948 44.6532C59.615 44.748 59.0763 45.0125 58.6468 45.4134C58.2174 45.8143 57.9164 46.3336 57.782 46.9055C57.6475 47.4774 57.6856 48.0763 57.8915 48.6266C58.0974 49.1768 58.4619 49.6537 58.9387 49.9969C59.4156 50.3401 59.9835 50.5341 60.5707 50.5546C61.3586 50.5817 62.1249 50.2947 62.7012 49.7568C63.2775 49.2188 63.6165 48.474 63.6436 47.6861Z" stroke="#F04A01" stroke-width="3" stroke-linejoin="round"/>
<path d="M52.9922 40.2188H60.6754V44.606" stroke="#F04A01" stroke-width="3" stroke-linejoin="round"/>
<path d="M63.6436 17.9005C63.6636 18.4877 63.5089 19.0676 63.1993 19.567C62.8898 20.0663 62.4392 20.4626 61.9044 20.7059C61.3696 20.9491 60.7746 21.0283 60.1948 20.9335C59.615 20.8387 59.0763 20.5742 58.6468 20.1733C58.2174 19.7724 57.9164 19.2532 57.782 18.6812C57.6475 18.1093 57.6856 17.5103 57.8915 16.9601C58.0974 16.4098 58.4619 15.9329 58.9387 15.5898C59.4156 15.2466 59.9835 15.0525 60.5707 15.032C61.3586 15.005 62.1249 15.2919 62.7012 15.8299C63.2775 16.3678 63.6165 17.1126 63.6436 17.9005Z" stroke="#F04A01" stroke-width="3" stroke-linejoin="round"/>
<path d="M60.6754 20.9814V25.3688H52.9922" stroke="#F04A01" stroke-width="3" stroke-linejoin="round"/>
<path d="M8.35816 47.6861C8.33822 47.099 8.4927 46.5191 8.80228 46.0198C9.11186 45.5205 9.56265 45.1241 10.0974 44.8809C10.6322 44.6376 11.2272 44.5584 11.807 44.6532C12.3868 44.748 12.9255 45.0125 13.355 45.4134C13.7844 45.8143 14.0854 46.3336 14.2198 46.9055C14.3543 47.4774 14.3162 48.0763 14.1103 48.6266C13.9044 49.1768 13.5399 49.6537 13.0631 49.9969C12.5862 50.3401 12.0183 50.5341 11.4311 50.5546C10.6432 50.5817 9.87692 50.2947 9.30064 49.7568C8.72435 49.2188 8.38532 48.474 8.35816 47.6861Z" stroke="#F04A01" stroke-width="3" stroke-linejoin="round"/>
<path d="M19.0104 40.2188H11.3271V44.606" stroke="#F04A01" stroke-width="3" stroke-linejoin="round"/>
<path d="M8.35816 17.9005C8.33822 18.4877 8.4927 19.0676 8.80228 19.567C9.11186 20.0663 9.56265 20.4626 10.0974 20.7059C10.6322 20.9491 11.2272 21.0283 11.807 20.9335C12.3868 20.8387 12.9255 20.5742 13.355 20.1733C13.7844 19.7724 14.0854 19.2532 14.2198 18.6812C14.3543 18.1093 14.3162 17.5103 14.1103 16.9601C13.9044 16.4098 13.5399 15.9329 13.0631 15.5898C12.5862 15.2466 12.0183 15.0525 11.4311 15.032C10.6432 15.005 9.87692 15.2919 9.30064 15.8299C8.72435 16.3678 8.38532 17.1126 8.35816 17.9005Z" stroke="#F04A01" stroke-width="3" stroke-linejoin="round"/>
<path d="M11.3271 20.9814V25.3688H19.0111" stroke="#F04A01" stroke-width="3" stroke-linejoin="round"/>
<path d="M28.7839 3.63976C28.764 4.22694 28.9187 4.80688 29.2282 5.30621C29.5378 5.80554 29.9884 6.20188 30.5232 6.44513C31.058 6.68837 31.653 6.76759 32.2328 6.6728C32.8126 6.578 33.3513 6.31345 33.7807 5.91255C34.2102 5.51165 34.5112 4.99241 34.6456 4.42049C34.7801 3.84856 34.7419 3.2496 34.536 2.69934C34.3301 2.14909 33.9657 1.6722 33.4888 1.32901C33.012 0.98583 32.4441 0.79177 31.8569 0.771287C31.069 0.74421 30.3027 1.03118 29.7264 1.56912C29.1501 2.10706 28.8111 2.85189 28.7839 3.63976Z" stroke="#F04A01" stroke-width="3" stroke-linejoin="round"/>
<path d="M37.2781 12.0128C37.2581 12.6 37.4127 13.1799 37.7222 13.6792C38.0318 14.1785 38.4824 14.5748 39.0172 14.8181C39.5519 15.0614 40.1467 15.1406 40.7265 15.0459C41.3063 14.9511 41.845 14.6866 42.2745 14.2858C42.704 13.885 43.0052 13.3659 43.1398 12.794C43.2743 12.2222 43.2361 11.6232 43.0304 11.073C42.8246 10.5227 42.4603 10.0458 41.9835 9.70255C41.5068 9.35928 40.9389 9.16499 40.3518 9.14436C39.9616 9.13085 39.5726 9.19432 39.207 9.33117C38.8413 9.46802 38.5062 9.67564 38.2207 9.942C37.9353 10.2084 37.7052 10.5283 37.5434 10.8836C37.3817 11.239 37.2915 11.6227 37.2781 12.0128Z" stroke="#F04A01" stroke-width="3" stroke-linejoin="round"/>
<path d="M23.3477 13.3008V21.3333" stroke="#F04A01" stroke-width="3" stroke-linejoin="round"/>
<path d="M31.7822 20.4292V6.71484" stroke="#F04A01" stroke-width="3" stroke-linejoin="round"/>
<path d="M40.2168 21.4996V16.1602" stroke="#F04A01" stroke-width="3" stroke-linejoin="round"/>
<path d="M48.6533 13.3008V21.3333" stroke="#F04A01" stroke-width="3" stroke-linejoin="round"/>
</g>
<defs>
<clipPath id="clip0_133_920">
<rect width="72" height="82.7195" fill="white"/>
</clipPath>
</defs>
</svg>
