<svg width="64" height="64" viewBox="0 0 64 64" fill="none" xmlns="http://www.w3.org/2000/svg">
<path d="M34.6667 37.333C37.6122 37.333 40 34.9452 40 31.9997C40 29.0542 37.6122 26.6663 34.6667 26.6663C31.7211 26.6663 29.3333 29.0542 29.3333 31.9997C29.3333 34.9452 31.7211 37.333 34.6667 37.333ZM34.6667 37.333V58.6663M21.3333 15.9997H48C50.9455 15.9997 53.3333 13.6119 53.3333 10.6663C53.3333 7.72082 50.9455 5.33301 48 5.33301H21.3333C18.3878 5.33301 16 7.72082 16 10.6663C16 13.6119 18.3878 15.9997 21.3333 15.9997ZM21.3119 15.9997H48.0214L52.5921 30.2081C53.9172 33.5541 53.4478 37.2827 51.327 40.2579L37.205 57.4024C36.0037 59.0876 33.3296 59.0876 32.1284 57.4024L18.0064 40.2579C15.8855 37.2827 15.4161 33.5541 16.7412 30.2081L21.3119 15.9997Z" stroke="#F04A01" stroke-width="2.5"/>
</svg>
